<mxfile host="Electron" modified="2024-03-03T11:23:17.398Z" agent="Mozilla/5.0 (Windows NT 10.0; Win64; x64) AppleWebKit/537.36 (KHTML, like Gecko) draw.io/23.1.5 Chrome/120.0.6099.109 Electron/28.1.0 Safari/537.36" etag="OOxw51X_X9rPanc-vhZi" version="23.1.5" type="device">
  <diagram name="第 1 页" id="IRkyyk_fHF-KCd8XJCfB">
    <mxGraphModel dx="1185" dy="689" grid="1" gridSize="10" guides="1" tooltips="1" connect="1" arrows="1" fold="1" page="1" pageScale="1" pageWidth="827" pageHeight="1169" math="0" shadow="0">
      <root>
        <mxCell id="0" />
        <mxCell id="1" parent="0" />
        <mxCell id="SIx3slGQkptC5hwy06Qq-1" value="" style="endArrow=classic;html=1;rounded=0;endFill=1;" edge="1" parent="1">
          <mxGeometry width="50" height="50" relative="1" as="geometry">
            <mxPoint x="440" y="180" as="sourcePoint" />
            <mxPoint x="441" y="720" as="targetPoint" />
          </mxGeometry>
        </mxCell>
        <mxCell id="SIx3slGQkptC5hwy06Qq-2" value="CPU" style="text;html=1;align=center;verticalAlign=middle;whiteSpace=wrap;rounded=0;" vertex="1" parent="1">
          <mxGeometry x="420" y="160" width="40" height="20" as="geometry" />
        </mxCell>
        <mxCell id="SIx3slGQkptC5hwy06Qq-3" value="GPU" style="text;html=1;align=center;verticalAlign=middle;whiteSpace=wrap;rounded=0;" vertex="1" parent="1">
          <mxGeometry x="180" y="160" width="40" height="20" as="geometry" />
        </mxCell>
        <mxCell id="SIx3slGQkptC5hwy06Qq-4" value="" style="endArrow=classic;html=1;rounded=0;endFill=1;" edge="1" parent="1">
          <mxGeometry width="50" height="50" relative="1" as="geometry">
            <mxPoint x="200" y="180" as="sourcePoint" />
            <mxPoint x="200" y="720" as="targetPoint" />
          </mxGeometry>
        </mxCell>
        <mxCell id="SIx3slGQkptC5hwy06Qq-5" value="" style="endArrow=none;html=1;rounded=0;" edge="1" parent="1">
          <mxGeometry width="50" height="50" relative="1" as="geometry">
            <mxPoint x="430" y="180" as="sourcePoint" />
            <mxPoint x="450" y="180" as="targetPoint" />
          </mxGeometry>
        </mxCell>
        <mxCell id="SIx3slGQkptC5hwy06Qq-6" value="Wait Fence" style="text;html=1;align=left;verticalAlign=middle;whiteSpace=wrap;rounded=0;spacingLeft=8;" vertex="1" parent="1">
          <mxGeometry x="450" y="190" width="90" height="20" as="geometry" />
        </mxCell>
        <mxCell id="SIx3slGQkptC5hwy06Qq-7" value="" style="endArrow=none;html=1;rounded=0;" edge="1" parent="1">
          <mxGeometry width="50" height="50" relative="1" as="geometry">
            <mxPoint x="430" y="220" as="sourcePoint" />
            <mxPoint x="450" y="220" as="targetPoint" />
          </mxGeometry>
        </mxCell>
        <mxCell id="SIx3slGQkptC5hwy06Qq-8" value="Reset Fence" style="text;html=1;align=left;verticalAlign=middle;whiteSpace=wrap;rounded=0;spacingLeft=8;" vertex="1" parent="1">
          <mxGeometry x="450" y="230" width="90" height="20" as="geometry" />
        </mxCell>
        <mxCell id="SIx3slGQkptC5hwy06Qq-9" value="" style="endArrow=none;html=1;rounded=0;" edge="1" parent="1">
          <mxGeometry width="50" height="50" relative="1" as="geometry">
            <mxPoint x="430" y="260" as="sourcePoint" />
            <mxPoint x="450" y="260" as="targetPoint" />
          </mxGeometry>
        </mxCell>
        <mxCell id="SIx3slGQkptC5hwy06Qq-10" value="Acquire Image" style="text;html=1;align=left;verticalAlign=middle;whiteSpace=wrap;rounded=0;spacingLeft=8;" vertex="1" parent="1">
          <mxGeometry x="450" y="270" width="100" height="20" as="geometry" />
        </mxCell>
        <mxCell id="SIx3slGQkptC5hwy06Qq-13" value="" style="endArrow=none;html=1;rounded=0;" edge="1" parent="1">
          <mxGeometry width="50" height="50" relative="1" as="geometry">
            <mxPoint x="430" y="300" as="sourcePoint" />
            <mxPoint x="450" y="300" as="targetPoint" />
          </mxGeometry>
        </mxCell>
        <mxCell id="SIx3slGQkptC5hwy06Qq-14" value="Reset Command Buffer" style="text;html=1;align=left;verticalAlign=middle;whiteSpace=wrap;rounded=0;spacingLeft=8;" vertex="1" parent="1">
          <mxGeometry x="450" y="310" width="140" height="20" as="geometry" />
        </mxCell>
        <mxCell id="SIx3slGQkptC5hwy06Qq-15" value="" style="endArrow=none;html=1;rounded=0;" edge="1" parent="1">
          <mxGeometry width="50" height="50" relative="1" as="geometry">
            <mxPoint x="430" y="340" as="sourcePoint" />
            <mxPoint x="450" y="340" as="targetPoint" />
          </mxGeometry>
        </mxCell>
        <mxCell id="SIx3slGQkptC5hwy06Qq-16" value="Record Command Buffer" style="text;html=1;align=left;verticalAlign=middle;whiteSpace=wrap;rounded=0;spacingLeft=8;" vertex="1" parent="1">
          <mxGeometry x="450" y="350" width="150" height="20" as="geometry" />
        </mxCell>
        <mxCell id="SIx3slGQkptC5hwy06Qq-17" value="" style="endArrow=none;html=1;rounded=0;" edge="1" parent="1">
          <mxGeometry width="50" height="50" relative="1" as="geometry">
            <mxPoint x="430" y="380" as="sourcePoint" />
            <mxPoint x="450" y="380" as="targetPoint" />
          </mxGeometry>
        </mxCell>
        <mxCell id="SIx3slGQkptC5hwy06Qq-18" value="Submit Command Buffer" style="text;html=1;align=left;verticalAlign=middle;whiteSpace=wrap;rounded=0;spacingLeft=8;" vertex="1" parent="1">
          <mxGeometry x="450" y="390" width="150" height="20" as="geometry" />
        </mxCell>
        <mxCell id="SIx3slGQkptC5hwy06Qq-27" value="" style="shape=curlyBracket;whiteSpace=wrap;html=1;rounded=1;flipH=1;labelPosition=right;verticalLabelPosition=middle;align=left;verticalAlign=middle;" vertex="1" parent="1">
          <mxGeometry x="600" y="220" width="20" height="240" as="geometry" />
        </mxCell>
        <mxCell id="SIx3slGQkptC5hwy06Qq-28" value="Continue executing&lt;br&gt;without been blocked" style="text;html=1;align=left;verticalAlign=middle;whiteSpace=wrap;rounded=0;spacingLeft=8;" vertex="1" parent="1">
          <mxGeometry x="620" y="340" width="130" height="40" as="geometry" />
        </mxCell>
        <mxCell id="SIx3slGQkptC5hwy06Qq-31" value="image&lt;br&gt;available" style="ellipse;whiteSpace=wrap;html=1;aspect=fixed;" vertex="1" parent="1">
          <mxGeometry x="290" y="320" width="60" height="60" as="geometry" />
        </mxCell>
        <mxCell id="SIx3slGQkptC5hwy06Qq-32" value="" style="endArrow=none;html=1;rounded=0;" edge="1" parent="1">
          <mxGeometry width="50" height="50" relative="1" as="geometry">
            <mxPoint x="190" y="299.8" as="sourcePoint" />
            <mxPoint x="210" y="299.8" as="targetPoint" />
          </mxGeometry>
        </mxCell>
        <mxCell id="SIx3slGQkptC5hwy06Qq-33" value="Acquire Image" style="text;html=1;align=right;verticalAlign=middle;whiteSpace=wrap;rounded=0;spacingRight=8;" vertex="1" parent="1">
          <mxGeometry x="100" y="310" width="90" height="20" as="geometry" />
        </mxCell>
        <mxCell id="SIx3slGQkptC5hwy06Qq-34" value="" style="endArrow=none;dashed=1;html=1;rounded=0;" edge="1" parent="1">
          <mxGeometry width="50" height="50" relative="1" as="geometry">
            <mxPoint x="221" y="300" as="sourcePoint" />
            <mxPoint x="421" y="300" as="targetPoint" />
          </mxGeometry>
        </mxCell>
        <mxCell id="SIx3slGQkptC5hwy06Qq-35" value="" style="endArrow=none;html=1;rounded=0;" edge="1" parent="1">
          <mxGeometry width="50" height="50" relative="1" as="geometry">
            <mxPoint x="190" y="420" as="sourcePoint" />
            <mxPoint x="210" y="420" as="targetPoint" />
          </mxGeometry>
        </mxCell>
        <mxCell id="SIx3slGQkptC5hwy06Qq-36" value="Render" style="text;html=1;align=right;verticalAlign=middle;whiteSpace=wrap;rounded=0;spacingRight=8;" vertex="1" parent="1">
          <mxGeometry x="100" y="480" width="90" height="20" as="geometry" />
        </mxCell>
        <mxCell id="SIx3slGQkptC5hwy06Qq-37" value="" style="endArrow=none;dashed=1;html=1;rounded=0;fillColor=#d5e8d4;strokeColor=#00FF00;gradientColor=#97d077;" edge="1" parent="1" target="SIx3slGQkptC5hwy06Qq-31">
          <mxGeometry width="50" height="50" relative="1" as="geometry">
            <mxPoint x="221" y="340" as="sourcePoint" />
            <mxPoint x="431" y="270" as="targetPoint" />
          </mxGeometry>
        </mxCell>
        <mxCell id="SIx3slGQkptC5hwy06Qq-38" value="signal" style="edgeLabel;html=1;align=center;verticalAlign=middle;resizable=0;points=[];fontColor=#00FF00;" vertex="1" connectable="0" parent="SIx3slGQkptC5hwy06Qq-37">
          <mxGeometry x="0.1777" relative="1" as="geometry">
            <mxPoint x="-9" y="-3" as="offset" />
          </mxGeometry>
        </mxCell>
        <mxCell id="SIx3slGQkptC5hwy06Qq-39" value="" style="endArrow=none;dashed=1;html=1;rounded=0;strokeColor=#FF0000;" edge="1" parent="1" target="SIx3slGQkptC5hwy06Qq-31">
          <mxGeometry width="50" height="50" relative="1" as="geometry">
            <mxPoint x="221" y="420" as="sourcePoint" />
            <mxPoint x="297" y="329" as="targetPoint" />
          </mxGeometry>
        </mxCell>
        <mxCell id="SIx3slGQkptC5hwy06Qq-40" value="wait" style="edgeLabel;html=1;align=center;verticalAlign=middle;resizable=0;points=[];fontColor=#FF0000;" vertex="1" connectable="0" parent="SIx3slGQkptC5hwy06Qq-39">
          <mxGeometry x="0.1777" relative="1" as="geometry">
            <mxPoint x="-9" y="3" as="offset" />
          </mxGeometry>
        </mxCell>
        <mxCell id="SIx3slGQkptC5hwy06Qq-41" value="" style="endArrow=none;dashed=1;html=1;rounded=0;" edge="1" parent="1">
          <mxGeometry width="50" height="50" relative="1" as="geometry">
            <mxPoint x="221" y="420" as="sourcePoint" />
            <mxPoint x="421" y="420" as="targetPoint" />
          </mxGeometry>
        </mxCell>
        <mxCell id="SIx3slGQkptC5hwy06Qq-42" value="render&lt;br&gt;finish" style="ellipse;whiteSpace=wrap;html=1;aspect=fixed;" vertex="1" parent="1">
          <mxGeometry x="250" y="440" width="60" height="60" as="geometry" />
        </mxCell>
        <mxCell id="SIx3slGQkptC5hwy06Qq-45" value="" style="endArrow=none;html=1;rounded=0;" edge="1" parent="1">
          <mxGeometry width="50" height="50" relative="1" as="geometry">
            <mxPoint x="430" y="420" as="sourcePoint" />
            <mxPoint x="450" y="420" as="targetPoint" />
          </mxGeometry>
        </mxCell>
        <mxCell id="SIx3slGQkptC5hwy06Qq-47" value="" style="endArrow=none;dashed=1;html=1;dashPattern=1 3;strokeWidth=2;rounded=0;" edge="1" parent="1">
          <mxGeometry width="50" height="50" relative="1" as="geometry">
            <mxPoint x="460" y="220" as="sourcePoint" />
            <mxPoint x="590" y="220" as="targetPoint" />
          </mxGeometry>
        </mxCell>
        <mxCell id="SIx3slGQkptC5hwy06Qq-48" value="" style="endArrow=none;dashed=1;html=1;dashPattern=1 3;strokeWidth=2;rounded=0;" edge="1" parent="1">
          <mxGeometry width="50" height="50" relative="1" as="geometry">
            <mxPoint x="460" y="460" as="sourcePoint" />
            <mxPoint x="590" y="460" as="targetPoint" />
          </mxGeometry>
        </mxCell>
        <mxCell id="SIx3slGQkptC5hwy06Qq-49" value="" style="endArrow=none;html=1;rounded=0;" edge="1" parent="1">
          <mxGeometry width="50" height="50" relative="1" as="geometry">
            <mxPoint x="190" y="339.8" as="sourcePoint" />
            <mxPoint x="210" y="339.8" as="targetPoint" />
          </mxGeometry>
        </mxCell>
        <mxCell id="SIx3slGQkptC5hwy06Qq-50" value="" style="endArrow=none;html=1;rounded=0;" edge="1" parent="1">
          <mxGeometry width="50" height="50" relative="1" as="geometry">
            <mxPoint x="190" y="560" as="sourcePoint" />
            <mxPoint x="210" y="560" as="targetPoint" />
          </mxGeometry>
        </mxCell>
        <mxCell id="SIx3slGQkptC5hwy06Qq-51" value="" style="endArrow=none;dashed=1;html=1;rounded=0;strokeColor=#00FF00;" edge="1" parent="1" target="SIx3slGQkptC5hwy06Qq-42">
          <mxGeometry width="50" height="50" relative="1" as="geometry">
            <mxPoint x="221" y="560" as="sourcePoint" />
            <mxPoint x="292" y="362" as="targetPoint" />
          </mxGeometry>
        </mxCell>
        <mxCell id="SIx3slGQkptC5hwy06Qq-52" value="signal" style="edgeLabel;html=1;align=center;verticalAlign=middle;resizable=0;points=[];fontColor=#00FF00;" vertex="1" connectable="0" parent="SIx3slGQkptC5hwy06Qq-51">
          <mxGeometry x="0.1777" relative="1" as="geometry">
            <mxPoint x="-6" y="-3" as="offset" />
          </mxGeometry>
        </mxCell>
        <mxCell id="SIx3slGQkptC5hwy06Qq-60" value="" style="endArrow=none;dashed=1;html=1;rounded=0;strokeColor=#00FF00;" edge="1" parent="1" target="SIx3slGQkptC5hwy06Qq-58">
          <mxGeometry width="50" height="50" relative="1" as="geometry">
            <mxPoint x="221" y="560" as="sourcePoint" />
            <mxPoint x="292" y="482" as="targetPoint" />
          </mxGeometry>
        </mxCell>
        <mxCell id="SIx3slGQkptC5hwy06Qq-61" value="signal" style="edgeLabel;html=1;align=center;verticalAlign=middle;resizable=0;points=[];fontColor=#00FF00;" vertex="1" connectable="0" parent="SIx3slGQkptC5hwy06Qq-60">
          <mxGeometry x="0.1777" relative="1" as="geometry">
            <mxPoint x="2" y="-3" as="offset" />
          </mxGeometry>
        </mxCell>
        <mxCell id="SIx3slGQkptC5hwy06Qq-62" value="" style="group" vertex="1" connectable="0" parent="1">
          <mxGeometry x="330" y="440" width="60" height="60" as="geometry" />
        </mxCell>
        <mxCell id="SIx3slGQkptC5hwy06Qq-58" value="" style="ellipse;whiteSpace=wrap;html=1;aspect=fixed;" vertex="1" parent="SIx3slGQkptC5hwy06Qq-62">
          <mxGeometry width="60" height="60" as="geometry" />
        </mxCell>
        <mxCell id="SIx3slGQkptC5hwy06Qq-59" value="inflight" style="ellipse;whiteSpace=wrap;html=1;aspect=fixed;" vertex="1" parent="SIx3slGQkptC5hwy06Qq-62">
          <mxGeometry x="6.88" y="6.88" width="46.25" height="46.25" as="geometry" />
        </mxCell>
        <mxCell id="SIx3slGQkptC5hwy06Qq-63" value="" style="endArrow=none;html=1;rounded=0;" edge="1" parent="1">
          <mxGeometry width="50" height="50" relative="1" as="geometry">
            <mxPoint x="430" y="460" as="sourcePoint" />
            <mxPoint x="450" y="460" as="targetPoint" />
          </mxGeometry>
        </mxCell>
        <mxCell id="SIx3slGQkptC5hwy06Qq-64" value="Present" style="text;html=1;align=left;verticalAlign=middle;whiteSpace=wrap;rounded=0;spacingLeft=8;" vertex="1" parent="1">
          <mxGeometry x="450" y="430" width="150" height="20" as="geometry" />
        </mxCell>
        <mxCell id="SIx3slGQkptC5hwy06Qq-65" value="" style="endArrow=none;html=1;rounded=0;" edge="1" parent="1">
          <mxGeometry width="50" height="50" relative="1" as="geometry">
            <mxPoint x="190" y="600" as="sourcePoint" />
            <mxPoint x="210" y="600" as="targetPoint" />
          </mxGeometry>
        </mxCell>
        <mxCell id="SIx3slGQkptC5hwy06Qq-66" value="Present" style="text;html=1;align=right;verticalAlign=middle;whiteSpace=wrap;rounded=0;spacingRight=8;" vertex="1" parent="1">
          <mxGeometry x="100" y="610" width="90" height="20" as="geometry" />
        </mxCell>
        <mxCell id="SIx3slGQkptC5hwy06Qq-67" value="" style="endArrow=none;html=1;rounded=0;" edge="1" parent="1">
          <mxGeometry width="50" height="50" relative="1" as="geometry">
            <mxPoint x="190" y="640" as="sourcePoint" />
            <mxPoint x="210" y="640" as="targetPoint" />
          </mxGeometry>
        </mxCell>
        <mxCell id="SIx3slGQkptC5hwy06Qq-68" value="" style="endArrow=none;dashed=1;html=1;rounded=0;strokeColor=#FF0000;" edge="1" parent="1" target="SIx3slGQkptC5hwy06Qq-42">
          <mxGeometry width="50" height="50" relative="1" as="geometry">
            <mxPoint x="221" y="600" as="sourcePoint" />
            <mxPoint x="266" y="506" as="targetPoint" />
          </mxGeometry>
        </mxCell>
        <mxCell id="SIx3slGQkptC5hwy06Qq-69" value="wait" style="edgeLabel;html=1;align=center;verticalAlign=middle;resizable=0;points=[];fontColor=#FF0000;" vertex="1" connectable="0" parent="SIx3slGQkptC5hwy06Qq-68">
          <mxGeometry x="0.1777" relative="1" as="geometry">
            <mxPoint x="-18" y="31" as="offset" />
          </mxGeometry>
        </mxCell>
        <mxCell id="SIx3slGQkptC5hwy06Qq-70" value="" style="endArrow=none;dashed=1;html=1;rounded=0;strokeColor=#FF0000;" edge="1" parent="1" target="SIx3slGQkptC5hwy06Qq-58">
          <mxGeometry width="50" height="50" relative="1" as="geometry">
            <mxPoint x="421" y="180" as="sourcePoint" />
            <mxPoint x="270" y="508" as="targetPoint" />
          </mxGeometry>
        </mxCell>
        <mxCell id="SIx3slGQkptC5hwy06Qq-71" value="wait" style="edgeLabel;html=1;align=center;verticalAlign=middle;resizable=0;points=[];fontColor=#FF0000;" vertex="1" connectable="0" parent="SIx3slGQkptC5hwy06Qq-70">
          <mxGeometry x="0.1777" relative="1" as="geometry">
            <mxPoint x="-5" y="26" as="offset" />
          </mxGeometry>
        </mxCell>
        <mxCell id="SIx3slGQkptC5hwy06Qq-73" value="" style="endArrow=none;dashed=1;html=1;rounded=0;edgeStyle=orthogonalEdgeStyle;curved=1;" edge="1" parent="1">
          <mxGeometry width="50" height="50" relative="1" as="geometry">
            <mxPoint x="221" y="600" as="sourcePoint" />
            <mxPoint x="421" y="460" as="targetPoint" />
            <Array as="points">
              <mxPoint x="221" y="601" />
              <mxPoint x="401" y="601" />
              <mxPoint x="401" y="460" />
            </Array>
          </mxGeometry>
        </mxCell>
        <mxCell id="SIx3slGQkptC5hwy06Qq-74" value="" style="endArrow=none;html=1;rounded=0;" edge="1" parent="1">
          <mxGeometry width="50" height="50" relative="1" as="geometry">
            <mxPoint x="430" y="499.6" as="sourcePoint" />
            <mxPoint x="450" y="499.6" as="targetPoint" />
          </mxGeometry>
        </mxCell>
        <mxCell id="SIx3slGQkptC5hwy06Qq-75" value="Wait Fence" style="text;html=1;align=left;verticalAlign=middle;whiteSpace=wrap;rounded=0;spacingLeft=8;" vertex="1" parent="1">
          <mxGeometry x="450" y="470" width="90" height="20" as="geometry" />
        </mxCell>
        <mxCell id="SIx3slGQkptC5hwy06Qq-76" value="" style="endArrow=none;dashed=1;html=1;rounded=0;strokeColor=#FF0000;" edge="1" parent="1" target="SIx3slGQkptC5hwy06Qq-58">
          <mxGeometry width="50" height="50" relative="1" as="geometry">
            <mxPoint x="421" y="500" as="sourcePoint" />
            <mxPoint x="377" y="451" as="targetPoint" />
          </mxGeometry>
        </mxCell>
        <mxCell id="SIx3slGQkptC5hwy06Qq-77" value="wait" style="edgeLabel;html=1;align=center;verticalAlign=middle;resizable=0;points=[];fontColor=#FF0000;" vertex="1" connectable="0" parent="SIx3slGQkptC5hwy06Qq-76">
          <mxGeometry x="0.1777" relative="1" as="geometry">
            <mxPoint y="3" as="offset" />
          </mxGeometry>
        </mxCell>
        <mxCell id="SIx3slGQkptC5hwy06Qq-78" value="" style="ellipse;whiteSpace=wrap;html=1;aspect=fixed;" vertex="1" parent="1">
          <mxGeometry x="261" y="160" width="40" height="40" as="geometry" />
        </mxCell>
        <mxCell id="SIx3slGQkptC5hwy06Qq-79" value="semaphore" style="text;html=1;align=center;verticalAlign=middle;whiteSpace=wrap;rounded=0;" vertex="1" parent="1">
          <mxGeometry x="251" y="200" width="60" height="20" as="geometry" />
        </mxCell>
        <mxCell id="SIx3slGQkptC5hwy06Qq-80" value="" style="ellipse;whiteSpace=wrap;html=1;aspect=fixed;" vertex="1" parent="1">
          <mxGeometry x="341" y="160" width="40" height="40" as="geometry" />
        </mxCell>
        <mxCell id="SIx3slGQkptC5hwy06Qq-81" value="" style="ellipse;whiteSpace=wrap;html=1;aspect=fixed;" vertex="1" parent="1">
          <mxGeometry x="346" y="165" width="30" height="30" as="geometry" />
        </mxCell>
        <mxCell id="SIx3slGQkptC5hwy06Qq-82" value="fence" style="text;html=1;align=center;verticalAlign=middle;whiteSpace=wrap;rounded=0;" vertex="1" parent="1">
          <mxGeometry x="331" y="200" width="60" height="20" as="geometry" />
        </mxCell>
        <mxCell id="SIx3slGQkptC5hwy06Qq-83" value="Execution Flow and Interactions between GPU and CPU" style="text;html=1;align=center;verticalAlign=middle;whiteSpace=wrap;rounded=0;" vertex="1" parent="1">
          <mxGeometry x="160" y="110" width="320" height="30" as="geometry" />
        </mxCell>
      </root>
    </mxGraphModel>
  </diagram>
</mxfile>
